<?xml version="1.0" standalone="no"?>
<!DOCTYPE svg PUBLIC "-//W3C//DTD SVG 20010904//EN"
 "http://www.w3.org/TR/2001/REC-SVG-20010904/DTD/svg10.dtd">
<svg version="1.0" xmlns="http://www.w3.org/2000/svg"
 width="64.000000pt" height="64.000000pt" viewBox="0 0 64.000000 64.000000"
 preserveAspectRatio="xMidYMid meet">

<g transform="translate(0.000000,64.000000) scale(0.100000,-0.100000)"
stroke="none">
<path d="M182 457 c-109 -40 -114 -44 -143 -89 -37 -61 -38 -82 -4 -74 l25 6
0 -94 c0 -66 4 -99 13 -108 8 -7 66 -31 131 -53 l116 -40 117 40 c64 22 122
46 130 53 9 9 13 41 13 97 0 80 1 83 25 89 32 8 31 17 -5 81 l-30 53 -116 41
c-63 23 -125 41 -137 40 -12 0 -73 -20 -135 -42z m325 -51 c2 -2 -35 -17 -82
-33 l-85 -30 0 62 0 62 82 -29 c45 -16 84 -30 85 -32z m-290 -65 l78 -29 3
-131 c1 -72 -1 -131 -5 -131 -4 0 -50 14 -100 32 l-93 31 0 134 c0 128 1 134
19 128 11 -3 55 -19 98 -34z m358 8 c9 -17 14 -33 11 -36 -5 -5 -187 -73 -197
-73 -8 0 -44 68 -39 73 10 9 176 66 192 66 10 1 25 -13 33 -30z m-35 -163 l0
-74 -100 -34 -100 -35 0 105 c0 104 0 104 19 81 l19 -24 79 27 c43 14 79 27
81 27 1 1 2 -32 2 -73z"/>
</g>
</svg>
