<?xml version="1.0" standalone="no"?>
<!DOCTYPE svg PUBLIC "-//W3C//DTD SVG 20010904//EN"
 "http://www.w3.org/TR/2001/REC-SVG-20010904/DTD/svg10.dtd">
<svg version="1.0" xmlns="http://www.w3.org/2000/svg"
 width="1080.000000pt" height="1180.000000pt" viewBox="0 0 1020.000000 1000.000000"
 preserveAspectRatio="xMidYMid meet">

<g transform="translate(0.000000,1080.000000) scale(0.100000,-0.100000)" stroke="none">
<path d="M1335 9094 c28 -20 95 -66 150 -103 144 -97 157 -107 290 -205 66
-49 217 -162 335 -250 118 -88 242 -182 275 -210 33 -28 125 -104 205 -169 80
-65 174 -143 210 -173 36 -31 123 -104 195 -162 71 -59 166 -141 211 -182 44
-41 130 -120 190 -174 116 -105 568 -550 719 -707 173 -181 633 -710 765 -881
192 -246 412 -550 488 -673 35 -56 55 -62 68 -22 7 22 169 254 250 357 293
375 481 604 604 735 164 177 279 302 303 330 24 28 126 135 302 315 41 41 97
95 127 120 29 24 73 67 97 95 91 104 414 391 750 665 57 47 176 145 265 218
302 248 843 651 1173 872 110 74 199 138 197 142 -12 20 -808 -223 -1119 -342
-810 -309 -1575 -703 -2293 -1181 -56 -38 -109 -69 -117 -69 -41 0 -85 111
-227 575 -115 376 -149 490 -178 590 -27 97 -84 295 -96 334 -3 8 -7 12 -9 9
-3 -3 -72 -207 -154 -454 -82 -247 -179 -534 -216 -639 -133 -381 -147 -410
-194 -403 -14 3 -145 83 -291 180 -146 96 -344 221 -440 278 -96 56 -213 125
-259 153 -242 143 -902 466 -1216 595 -55 22 -134 55 -175 72 -308 128 -1135
400 -1218 400 -10 0 3 -14 33 -36z"/>
<path d="M4118 6023 c-23 -21 -99 -90 -168 -153 -69 -63 -170 -155 -225 -205
-54 -49 -108 -99 -119 -111 -12 -11 -97 -90 -191 -175 -439 -399 -1102 -1042
-1434 -1390 -113 -118 -221 -230 -242 -249 -36 -34 -115 -120 -389 -425 -187
-208 -227 -253 -286 -330 -30 -38 -76 -95 -102 -127 -183 -219 -418 -524 -537
-698 -119 -173 -157 -231 -153 -236 3 -2 67 21 144 51 76 31 189 74 249 96 61
22 133 49 160 59 56 22 285 95 415 133 242 72 604 155 830 191 258 41 392 50
720 50 343 1 482 -12 725 -65 86 -18 91 -18 103 -2 7 10 56 101 109 203 52
102 110 210 128 240 17 30 74 129 125 220 52 91 101 176 110 190 10 14 77 122
149 240 235 382 411 645 752 1119 124 173 139 195 139 214 0 39 -157 269 -301
442 -47 55 -122 147 -168 205 -70 88 -262 313 -281 330 -3 3 -39 46 -79 95
-83 101 -107 125 -127 125 -8 0 -33 -17 -56 -37z"/>
<path d="M6622 6034 c-20 -14 -308 -340 -461 -523 -35 -42 -82 -97 -105 -122
-49 -54 -235 -290 -290 -369 -57 -80 -87 -151 -74 -176 19 -35 259 -394 268
-399 5 -3 77 75 161 172 207 241 649 740 785 889 62 67 117 131 123 143 16 28
6 43 -76 121 -37 35 -119 113 -181 172 -62 59 -116 108 -120 108 -4 0 -18 -7
-30 -16z"/>
<path d="M7278 5408 c-8 -7 -125 -136 -259 -287 -246 -277 -394 -442 -679
-760 -85 -95 -161 -184 -168 -197 -16 -29 -2 -58 128 -259 42 -66 100 -161
128 -211 29 -51 59 -97 67 -104 18 -15 4 -29 235 245 143 170 194 230 384 449
124 144 320 367 463 528 73 82 137 157 143 168 9 17 1 30 -56 93 -114 122
-345 347 -358 347 -7 0 -19 -6 -28 -12z"/>
<path d="M7955 4588 c-44 -46 -172 -180 -284 -298 -113 -118 -266 -278 -340
-355 -477 -492 -618 -640 -630 -665 -13 -26 -7 -39 133 -310 80 -155 146 -284
146 -285 0 -1 27 -59 59 -127 l59 -126 76 18 c41 10 144 29 228 42 138 21 187
23 488 23 367 0 485 -10 785 -66 184 -34 554 -124 700 -170 183 -57 547 -190
773 -283 63 -25 118 -46 124 -46 24 0 -249 423 -416 645 -17 23 -56 76 -86
118 -60 84 -237 311 -329 422 -140 168 -168 203 -201 245 -34 44 -234 276
-339 394 -30 34 -89 99 -130 145 -42 47 -116 128 -166 180 -49 53 -124 134
-165 179 -117 129 -385 402 -395 402 -5 0 -45 -37 -90 -82z"/>
</g>
</svg>
