<?xml version="1.0" standalone="no"?>
<!DOCTYPE svg PUBLIC "-//W3C//DTD SVG 20010904//EN"
 "http://www.w3.org/TR/2001/REC-SVG-20010904/DTD/svg10.dtd">
<svg version="1.0" xmlns="http://www.w3.org/2000/svg"
 width="360.000000pt" height="360.000000pt" viewBox="0 0 360.000000 360.000000"
 preserveAspectRatio="xMidYMid meet">

<g transform="translate(0.000000,360.000000) scale(0.100000,-0.100000)"
stroke="none">
<path d="M1910 3526 c-91 -34 -178 -68 -193 -74 -16 -7 -31 -12 -35 -12 -4 -1
-25 -9 -47 -20 -22 -11 -44 -19 -49 -20 -13 0 -302 -146 -333 -169 -16 -10
-55 -36 -88 -56 -148 -92 -344 -255 -446 -371 -165 -186 -264 -452 -244 -654
20 -203 94 -372 239 -550 125 -154 172 -202 356 -358 232 -198 366 -355 419
-492 94 -245 138 -500 113 -668 -5 -34 -6 -64 -3 -66 5 -3 114 37 176 64 11 5
70 30 130 56 462 197 869 490 1048 756 118 177 162 308 162 493 0 144 -24 245
-89 376 -71 142 -128 212 -397 484 -141 143 -275 281 -297 308 -92 107 -186
257 -229 367 -52 133 -58 167 -57 335 1 147 10 219 40 318 3 9 2 17 -3 16 -4
-1 -82 -29 -173 -63z m-172 -408 c5 -7 13 -29 17 -48 20 -103 87 -293 147
-412 32 -65 36 -98 12 -98 -14 0 -304 141 -409 199 -149 83 -205 117 -205 128
0 26 94 89 245 164 88 43 165 79 171 79 6 0 16 -6 22 -12z m-506 -551 c287
-163 364 -204 503 -272 136 -66 470 -213 590 -260 143 -56 199 -91 267 -164
104 -115 183 -263 131 -247 -10 3 -36 10 -58 15 -65 15 -673 229 -770 271 -11
5 -90 39 -175 75 -253 109 -608 299 -803 428 -78 53 -76 69 28 191 40 47 63
66 80 66 13 0 106 -47 207 -103z m-406 -466 c5 -5 151 -81 324 -169 520 -262
850 -400 1435 -598 94 -31 180 -61 193 -66 l23 -8 -32 -58 c-50 -89 -78 -122
-102 -122 -32 0 -682 222 -762 260 -11 5 -43 18 -72 29 -187 72 -850 395 -908
443 -45 37 -145 234 -145 286 0 14 32 16 46 3z m994 -1077 c52 -19 115 -44
140 -55 39 -16 306 -117 410 -154 19 -7 36 -20 38 -28 2 -8 -16 -31 -40 -52
-84 -72 -431 -264 -459 -253 -9 4 -26 48 -43 114 -32 128 -60 203 -127 338
-27 55 -49 105 -49 113 0 20 26 16 130 -23z"/>
</g>
</svg>
