<?xml version="1.0" standalone="no"?>
<!DOCTYPE svg PUBLIC "-//W3C//DTD SVG 20010904//EN"
 "http://www.w3.org/TR/2001/REC-SVG-20010904/DTD/svg10.dtd">
<svg version="1.0" xmlns="http://www.w3.org/2000/svg"
 width="550.000000pt" height="434.000000pt" viewBox="0 0 550.000000 434.000000"
 preserveAspectRatio="xMidYMid meet">

<g transform="translate(0.000000,434.000000) scale(0.100000,-0.100000)"
stroke="none">
<path d="M4936 4324 c-151 -36 -284 -169 -326 -323 -6 -23 -11 -77 -11 -119 1
-175 97 -326 258 -403 l63 -30 0 -653 0 -654 113 -4 c61 -3 119 -6 127 -9 13
-3 15 76 18 661 l2 665 58 25 c74 32 179 134 215 212 163 346 -145 722 -517
632z"/>
<path d="M2000 3754 c-170 -12 -378 -54 -545 -110 -92 -30 -286 -120 -360
-166 -79 -50 -227 -163 -264 -202 l-35 -36 1339 0 1339 0 -30 31 c-160 171
-499 351 -794 422 -195 48 -472 73 -650 61z"/>
<path d="M62 2960 c-65 -40 -62 17 -62 -1146 0 -1158 -3 -1099 58 -1141 26
-17 118 -18 2067 -21 1963 -2 2041 -1 2074 16 19 10 43 34 53 53 17 32 18 86
18 1092 0 1165 3 1107 -62 1147 -33 20 -44 20 -2073 20 -2029 0 -2040 0 -2073
-20z m3681 -445 c18 -9 41 -28 52 -43 19 -26 20 -45 23 -642 2 -571 1 -617
-15 -649 -10 -19 -31 -44 -46 -55 l-28 -21 -1594 0 -1594 0 -28 21 c-65 47
-63 27 -63 686 0 398 4 606 11 625 13 34 47 72 74 83 11 5 730 9 1598 9 1399
1 1583 -1 1610 -14z"/>
<path d="M712 1818 l3 -453 385 0 385 0 3 453 2 452 -390 0 -390 0 2 -452z"/>
<path d="M1750 1815 l0 -455 385 0 385 0 0 455 0 455 -385 0 -385 0 0 -455z"/>
<path d="M2782 1818 l3 -453 385 0 385 0 3 453 2 452 -390 0 -390 0 2 -452z"/>
<path d="M4530 1684 l0 -195 283 3 c271 3 284 4 324 26 139 74 132 278 -12
343 -36 17 -70 19 -317 19 l-278 0 0 -196z"/>
<path d="M712 293 c4 -73 10 -109 26 -139 28 -54 77 -102 127 -125 38 -18 100
-19 1270 -19 1170 0 1232 1 1270 19 50 23 99 71 127 125 16 30 22 66 26 139
l5 97 -1428 0 -1428 0 5 -97z"/>
</g>
</svg>
